<svg id="Laag_1" data-name="Laag 1" xmlns="http://www.w3.org/2000/svg" viewBox="0 0 149.51 149.51"><defs><style>.cls-1{fill:#ededed;}.cls-2{fill:#dadada;}.cls-3{fill:#f6f6f6;}.cls-4{fill:#936037;}.cls-5{fill:#edd6cd;}.cls-6{fill:#fce3d9;}.cls-7{fill:#93cebc;}.cls-8{fill:#78c0ab;}.cls-9{fill:#548577;}</style></defs><title>kist_doel</title><rect class="cls-1" y="124.59" width="24.92" height="24.92"/><rect class="cls-2" y="99.68" width="24.92" height="24.92"/><rect class="cls-2" x="24.92" y="99.68" width="24.92" height="24.92"/><rect class="cls-1" x="24.92" y="124.59" width="24.92" height="24.92"/><rect class="cls-2" y="49.84" width="24.92" height="24.92"/><rect class="cls-2" x="24.92" y="49.84" width="24.92" height="24.92"/><rect class="cls-2" x="49.84" y="49.84" width="24.92" height="24.92"/><rect class="cls-2" x="74.76" y="49.84" width="24.92" height="24.92"/><rect class="cls-2" x="99.68" y="49.84" width="24.92" height="24.92"/><rect class="cls-1" y="74.76" width="24.92" height="24.92"/><rect class="cls-1" x="24.92" y="74.76" width="24.92" height="24.92"/><rect class="cls-1" x="49.84" y="74.76" width="24.92" height="24.92"/><rect class="cls-1" x="74.76" y="74.76" width="24.92" height="24.92"/><rect class="cls-1" x="99.68" y="74.76" width="24.92" height="24.92"/><rect class="cls-1" x="49.84" y="124.59" width="24.92" height="24.92"/><rect class="cls-1" x="74.76" y="124.59" width="24.92" height="24.92"/><rect class="cls-2" x="124.59" y="49.84" width="24.92" height="24.92"/><rect class="cls-1" x="124.59" y="74.76" width="24.92" height="24.92"/><rect class="cls-1" y="24.92" width="24.92" height="24.92"/><rect class="cls-3" width="24.92" height="24.92"/><rect class="cls-3" x="24.92" width="24.92" height="24.92"/><rect class="cls-1" x="24.92" y="24.92" width="24.92" height="24.92"/><rect class="cls-3" x="49.84" width="24.92" height="24.92"/><rect class="cls-3" x="74.76" width="24.92" height="24.92"/><rect class="cls-1" x="99.68" y="24.92" width="24.92" height="24.92"/><rect class="cls-1" x="74.76" y="24.92" width="24.92" height="24.92"/><rect class="cls-1" x="49.84" y="24.92" width="24.92" height="24.92"/><rect class="cls-3" x="99.68" width="24.92" height="24.92"/><rect class="cls-3" x="124.59" width="24.92" height="24.92"/><rect class="cls-1" x="124.59" y="24.92" width="24.92" height="24.92"/><rect class="cls-1" x="99.68" y="124.59" width="24.92" height="24.92"/><rect class="cls-2" x="99.68" y="99.68" width="24.92" height="24.92"/><rect class="cls-2" x="74.76" y="99.68" width="24.92" height="24.92"/><rect class="cls-2" x="49.84" y="99.68" width="24.92" height="24.92"/><rect class="cls-2" x="124.59" y="99.68" width="24.92" height="24.92"/><rect class="cls-1" x="124.59" y="124.59" width="24.92" height="24.92"/><rect class="cls-4" x="59.18" y="12.46" width="10.38" height="10.38"/><rect class="cls-4" x="69.57" y="12.46" width="10.38" height="10.38"/><rect class="cls-4" x="79.95" y="12.46" width="10.38" height="10.38"/><rect class="cls-5" x="79.95" y="22.84" width="10.38" height="10.38"/><rect class="cls-5" x="69.57" y="22.84" width="10.38" height="10.38"/><rect class="cls-6" x="69.57" y="33.23" width="10.38" height="10.38"/><rect class="cls-5" x="59.18" y="33.23" width="10.38" height="10.38"/><rect class="cls-5" x="59.18" y="43.61" width="10.38" height="10.38"/><rect class="cls-6" x="69.57" y="43.61" width="10.38" height="10.38"/><rect class="cls-5" x="69.57" y="53.99" width="10.38" height="10.38"/><rect class="cls-6" x="69.57" y="64.37" width="10.38" height="10.38"/><rect class="cls-7" x="59.18" y="64.37" width="10.38" height="10.38"/><rect class="cls-7" x="79.95" y="64.37" width="10.38" height="10.38"/><rect class="cls-7" x="90.33" y="64.37" width="10.38" height="10.38"/><rect class="cls-7" x="48.8" y="64.37" width="10.38" height="10.38"/><rect class="cls-8" x="48.8" y="74.76" width="10.38" height="10.38"/><rect class="cls-5" x="48.8" y="85.14" width="10.38" height="10.38"/><rect class="cls-6" x="48.8" y="95.52" width="10.38" height="10.38"/><rect class="cls-5" x="90.33" y="85.14" width="10.38" height="10.38"/><rect class="cls-6" x="90.33" y="95.52" width="10.38" height="10.38"/><rect class="cls-8" x="90.33" y="74.76" width="10.38" height="10.38"/><rect class="cls-8" x="79.95" y="74.76" width="10.38" height="10.38"/><rect class="cls-8" x="79.95" y="85.14" width="10.38" height="10.38"/><rect class="cls-8" x="69.57" y="85.14" width="10.38" height="10.38"/><rect class="cls-8" x="59.18" y="85.14" width="10.38" height="10.38"/><rect class="cls-9" x="79.95" y="95.52" width="10.38" height="10.38"/><rect class="cls-9" x="79.95" y="105.91" width="10.38" height="10.38"/><rect class="cls-9" x="79.95" y="116.29" width="10.38" height="10.38"/><rect class="cls-9" x="59.18" y="116.29" width="10.38" height="10.38"/><rect class="cls-4" x="59.18" y="126.67" width="10.38" height="10.38"/><rect class="cls-4" x="79.95" y="126.67" width="10.38" height="10.38"/><rect class="cls-4" x="90.33" y="126.67" width="10.38" height="10.38"/><rect class="cls-4" x="48.8" y="126.67" width="10.38" height="10.38"/><rect class="cls-9" x="59.18" y="105.91" width="10.38" height="10.38"/><rect class="cls-9" x="69.57" y="95.52" width="10.38" height="10.38"/><rect class="cls-9" x="59.18" y="95.52" width="10.38" height="10.38"/><rect class="cls-8" x="69.57" y="74.76" width="10.38" height="10.38"/><rect class="cls-8" x="59.18" y="74.76" width="10.38" height="10.38"/><rect class="cls-6" x="79.95" y="43.61" width="10.38" height="10.38"/><rect class="cls-6" x="79.95" y="33.23" width="10.38" height="10.38"/><rect class="cls-4" x="90.33" y="22.84" width="10.38" height="10.38"/><rect class="cls-4" x="59.18" y="22.84" width="10.38" height="10.38"/><rect class="cls-4" x="48.8" y="22.84" width="10.38" height="10.38"/></svg>