<svg id="Laag_1" data-name="Laag 1" xmlns="http://www.w3.org/2000/svg" viewBox="0 0 149.51 149.51"><defs><style>.cls-1{fill:#ededed;}.cls-2{fill:#dadada;}.cls-3{fill:#f6f6f6;}.cls-4{fill:#609788;}.cls-5{fill:#548577;}.cls-6{fill:#78c0ab;}.cls-7{fill:#a4d4c4;}</style></defs><title>veld</title><rect class="cls-1" y="124.59" width="24.92" height="24.92"/><rect class="cls-2" y="99.68" width="24.92" height="24.92"/><rect class="cls-2" x="24.92" y="99.68" width="24.92" height="24.92"/><rect class="cls-1" x="24.92" y="124.59" width="24.92" height="24.92"/><rect class="cls-2" y="49.84" width="24.92" height="24.92"/><rect class="cls-1" y="74.76" width="24.92" height="24.92"/><rect class="cls-1" x="49.84" y="124.59" width="24.92" height="24.92"/><rect class="cls-1" x="74.76" y="124.59" width="24.92" height="24.92"/><rect class="cls-2" x="124.59" y="49.84" width="24.92" height="24.92"/><rect class="cls-1" x="124.59" y="74.76" width="24.92" height="24.92"/><rect class="cls-1" y="24.92" width="24.92" height="24.92"/><rect class="cls-3" width="24.92" height="24.92"/><rect class="cls-3" x="24.92" width="24.92" height="24.92"/><rect class="cls-1" x="24.92" y="24.92" width="24.92" height="24.92"/><rect class="cls-3" x="49.84" width="24.92" height="24.92"/><rect class="cls-3" x="74.76" width="24.92" height="24.92"/><rect class="cls-1" x="99.68" y="24.92" width="24.92" height="24.92"/><rect class="cls-3" x="99.68" width="24.92" height="24.92"/><rect class="cls-3" x="124.59" width="24.92" height="24.92"/><rect class="cls-1" x="124.59" y="24.92" width="24.92" height="24.92"/><rect class="cls-1" x="99.68" y="124.59" width="24.92" height="24.92"/><rect class="cls-2" x="99.68" y="99.68" width="24.92" height="24.92"/><rect class="cls-2" x="124.59" y="99.68" width="24.92" height="24.92"/><rect class="cls-1" x="124.59" y="124.59" width="24.92" height="24.92"/><rect class="cls-4" x="99.68" y="75" width="24.92" height="24.92" transform="translate(224.27 174.92) rotate(180)"/><rect class="cls-5" x="99.68" y="50.08" width="24.92" height="24.92" transform="translate(224.27 125.08) rotate(180)"/><rect class="cls-6" x="74.76" y="50.08" width="24.92" height="24.92" transform="translate(174.43 125.08) rotate(180)"/><rect class="cls-4" x="74.76" y="75" width="24.92" height="24.92" transform="translate(174.43 174.92) rotate(180)"/><rect class="cls-6" x="49.84" y="75" width="24.92" height="24.92" transform="translate(124.59 174.92) rotate(180)"/><rect class="cls-7" x="49.84" y="50.08" width="24.92" height="24.92" transform="translate(124.59 125.08) rotate(180)"/><rect class="cls-4" x="74.76" y="25.16" width="24.92" height="24.92" transform="translate(174.43 75.24) rotate(180)"/><rect class="cls-5" x="49.84" y="25.16" width="24.92" height="24.92" transform="translate(124.59 75.24) rotate(180)"/><rect class="cls-4" x="24.92" y="50.08" width="24.92" height="24.92" transform="translate(74.76 125.08) rotate(180)"/><rect class="cls-5" x="24.92" y="75" width="24.92" height="24.92" transform="translate(74.76 174.92) rotate(180)"/><rect class="cls-5" x="74.76" y="99.92" width="24.92" height="24.92" transform="translate(174.43 224.76) rotate(180)"/><rect class="cls-4" x="49.84" y="99.92" width="24.92" height="24.92" transform="translate(124.59 224.76) rotate(180)"/></svg>