<svg id="Laag_1" data-name="Laag 1" xmlns="http://www.w3.org/2000/svg" viewBox="0 0 149.51 149.51"><defs><style>.cls-1{fill:#78c0ab;}.cls-2{fill:#a4d4c4;}.cls-3{fill:#f6f6f6;}.cls-4{fill:#8d7c6b;}.cls-5{fill:#bda588;}.cls-6{fill:#806c5a;}.cls-7{fill:#a99073;}.cls-8{fill:#6f5f4d;}</style></defs><title>kist_doel</title><rect class="cls-1" y="99.68" width="24.92" height="24.92"/><rect class="cls-1" x="24.92" y="124.59" width="24.92" height="24.92"/><rect class="cls-2" y="74.76" width="24.92" height="24.92"/><rect class="cls-2" y="49.84" width="24.92" height="24.92"/><rect class="cls-2" x="49.84" y="124.59" width="24.92" height="24.92"/><rect class="cls-2" x="74.76" y="124.59" width="24.92" height="24.92"/><rect class="cls-2" x="124.59" y="49.84" width="24.92" height="24.92"/><rect class="cls-2" x="124.59" y="74.76" width="24.92" height="24.92"/><rect class="cls-1" y="24.92" width="24.92" height="24.92"/><rect class="cls-1" x="24.92" width="24.92" height="24.92"/><rect class="cls-3" width="24.92" height="24.92"/><rect class="cls-3" x="124.59" width="24.92" height="24.92"/><rect class="cls-3" x="124.59" y="124.59" width="24.92" height="24.92"/><rect class="cls-3" y="124.59" width="24.92" height="24.92"/><rect class="cls-2" x="49.84" width="24.92" height="24.92"/><rect class="cls-2" x="74.76" width="24.92" height="24.92"/><rect class="cls-1" x="99.68" width="24.92" height="24.92"/><rect class="cls-1" x="124.59" y="24.92" width="24.92" height="24.92"/><rect class="cls-1" x="99.68" y="124.59" width="24.92" height="24.92"/><rect class="cls-1" x="124.59" y="99.68" width="24.92" height="24.92"/><rect class="cls-4" x="116.29" y="12.46" width="20.77" height="20.77" transform="translate(253.34 45.68) rotate(180)"/><rect class="cls-4" x="116.29" y="33.23" width="20.77" height="20.77" transform="translate(253.34 87.22) rotate(180)"/><rect class="cls-5" x="95.52" y="33.23" width="20.77" height="20.77" transform="translate(211.81 87.22) rotate(180)"/><rect class="cls-4" x="95.52" y="12.46" width="20.77" height="20.77" transform="translate(211.81 45.68) rotate(180)"/><rect class="cls-6" x="116.29" y="53.99" width="20.77" height="20.77" transform="translate(253.34 128.75) rotate(180)"/><rect class="cls-6" x="116.29" y="74.76" width="20.77" height="20.77" transform="translate(253.34 170.28) rotate(180)"/><rect class="cls-5" x="95.52" y="74.76" width="20.77" height="20.77" transform="translate(211.81 170.28) rotate(180)"/><rect class="cls-5" x="95.52" y="53.99" width="20.77" height="20.77" transform="translate(211.81 128.75) rotate(180)"/><rect class="cls-7" x="74.76" y="53.99" width="20.77" height="20.77" transform="translate(170.28 128.75) rotate(180)"/><rect class="cls-6" x="74.76" y="74.76" width="20.77" height="20.77" transform="translate(170.28 170.28) rotate(180)"/><rect class="cls-5" x="53.99" y="74.76" width="20.77" height="20.77" transform="translate(128.75 170.28) rotate(180)"/><rect class="cls-6" x="53.99" y="53.99" width="20.77" height="20.77" transform="translate(128.75 128.75) rotate(180)"/><rect class="cls-6" x="74.76" y="12.46" width="20.77" height="20.77" transform="translate(170.28 45.68) rotate(180)"/><rect class="cls-7" x="74.76" y="33.23" width="20.77" height="20.77" transform="translate(170.28 87.22) rotate(180)"/><rect class="cls-5" x="53.99" y="33.23" width="20.77" height="20.77" transform="translate(128.75 87.22) rotate(180)"/><rect class="cls-6" x="53.99" y="12.46" width="20.77" height="20.77" transform="translate(128.75 45.68) rotate(180)"/><rect class="cls-7" x="33.23" y="53.99" width="20.77" height="20.77" transform="translate(87.22 128.75) rotate(180)"/><rect class="cls-7" x="33.23" y="74.76" width="20.77" height="20.77" transform="translate(87.22 170.28) rotate(180)"/><rect class="cls-6" x="12.46" y="74.76" width="20.77" height="20.77" transform="translate(45.68 170.28) rotate(180)"/><rect class="cls-8" x="12.46" y="53.99" width="20.77" height="20.77" transform="translate(45.68 128.75) rotate(180)"/><rect class="cls-8" x="116.29" y="95.52" width="20.77" height="20.77" transform="translate(253.34 211.81) rotate(180)"/><rect class="cls-6" x="116.29" y="116.29" width="20.77" height="20.77" transform="translate(253.34 253.34) rotate(180)"/><rect class="cls-8" x="95.52" y="116.29" width="20.77" height="20.77" transform="translate(211.81 253.34) rotate(180)"/><rect class="cls-6" x="95.52" y="95.52" width="20.77" height="20.77" transform="translate(211.81 211.81) rotate(180)"/><rect class="cls-7" x="74.76" y="95.52" width="20.77" height="20.77" transform="translate(170.28 211.81) rotate(180)"/><rect class="cls-8" x="74.76" y="116.29" width="20.77" height="20.77" transform="translate(170.28 253.34) rotate(180)"/><rect class="cls-6" x="53.99" y="116.29" width="20.77" height="20.77" transform="translate(128.75 253.34) rotate(180)"/><rect class="cls-5" x="53.99" y="95.52" width="20.77" height="20.77" transform="translate(128.75 211.81) rotate(180)"/><rect class="cls-7" x="33.23" y="95.52" width="20.77" height="20.77" transform="translate(87.22 211.81) rotate(180)"/><rect class="cls-4" x="33.23" y="116.29" width="20.77" height="20.77" transform="translate(87.22 253.34) rotate(180)"/><rect class="cls-4" x="12.46" y="116.29" width="20.77" height="20.77" transform="translate(45.68 253.34) rotate(180)"/><rect class="cls-4" x="12.46" y="95.52" width="20.77" height="20.77" transform="translate(45.68 211.81) rotate(180)"/><rect class="cls-8" x="33.23" y="12.46" width="20.77" height="20.77" transform="translate(87.22 45.68) rotate(180)"/><rect class="cls-6" x="33.23" y="33.23" width="20.77" height="20.77" transform="translate(87.22 87.22) rotate(180)"/><rect class="cls-8" x="12.46" y="33.23" width="20.77" height="20.77" transform="translate(45.68 87.22) rotate(180)"/><rect class="cls-6" x="12.46" y="12.46" width="20.77" height="20.77" transform="translate(45.68 45.68) rotate(180)"/></svg>