<svg id="Laag_1" data-name="Laag 1" xmlns="http://www.w3.org/2000/svg" viewBox="0 0 149.51 149.51"><defs><style>.cls-1{fill:#548577;}.cls-2{fill:#609788;}.cls-3{fill:#78c0ab;}.cls-4{fill:#65a08f;}.cls-5{fill:#93cebc;}.cls-6{fill:#a4d4c4;}</style></defs><title>veld</title><rect class="cls-1" x="124.59" y="124.59" width="24.92" height="24.92" transform="translate(0 274.11) rotate(-90)"/><rect class="cls-2" x="99.68" y="124.59" width="24.92" height="24.92" transform="translate(-24.92 249.19) rotate(-90)"/><rect class="cls-3" x="99.68" y="99.68" width="24.92" height="24.92" transform="translate(0 224.27) rotate(-90)"/><rect class="cls-2" x="124.59" y="99.68" width="24.92" height="24.92" transform="translate(24.92 249.19) rotate(-90)"/><rect class="cls-4" x="74.76" y="124.59" width="24.92" height="24.92" transform="translate(-49.84 224.27) rotate(-90)"/><rect class="cls-4" x="49.84" y="124.59" width="24.92" height="24.92" transform="translate(-74.76 199.35) rotate(-90)"/><rect class="cls-3" x="49.84" y="99.68" width="24.92" height="24.92" transform="translate(-49.84 174.43) rotate(-90)"/><rect class="cls-3" x="74.76" y="99.68" width="24.92" height="24.92" transform="translate(-24.92 199.35) rotate(-90)"/><rect class="cls-5" x="74.76" y="74.76" width="24.92" height="24.92" transform="translate(0 174.43) rotate(-90)"/><rect class="cls-6" x="49.84" y="74.76" width="24.92" height="24.92" transform="translate(-24.92 149.51) rotate(-90)"/><rect class="cls-5" x="49.84" y="49.84" width="24.92" height="24.92" transform="translate(0 124.59) rotate(-90)"/><rect class="cls-5" x="74.76" y="49.84" width="24.92" height="24.92" transform="translate(24.92 149.51) rotate(-90)"/><rect class="cls-4" x="124.59" y="74.76" width="24.92" height="24.92" transform="translate(49.84 224.27) rotate(-90)"/><rect class="cls-3" x="99.68" y="74.76" width="24.92" height="24.92" transform="translate(24.92 199.35) rotate(-90)"/><rect class="cls-3" x="99.68" y="49.84" width="24.92" height="24.92" transform="translate(49.84 174.43) rotate(-90)"/><rect class="cls-4" x="124.59" y="49.84" width="24.92" height="24.92" transform="translate(74.76 199.35) rotate(-90)"/><rect class="cls-3" x="74.76" y="24.92" width="24.92" height="24.92" transform="translate(49.84 124.59) rotate(-90)"/><rect class="cls-3" x="49.84" y="24.92" width="24.92" height="24.92" transform="translate(24.92 99.68) rotate(-90)"/><rect class="cls-4" x="49.84" width="24.92" height="24.92" transform="translate(49.84 74.76) rotate(-90)"/><rect class="cls-4" x="74.76" width="24.92" height="24.92" transform="translate(74.76 99.68) rotate(-90)"/><rect class="cls-2" x="24.92" y="124.59" width="24.92" height="24.92" transform="translate(-99.68 174.43) rotate(-90)"/><rect class="cls-1" y="124.59" width="24.92" height="24.92" transform="translate(-124.59 149.51) rotate(-90)"/><rect class="cls-2" y="99.68" width="24.92" height="24.92" transform="translate(-99.68 124.59) rotate(-90)"/><rect class="cls-3" x="24.92" y="99.68" width="24.92" height="24.92" transform="translate(-74.76 149.51) rotate(-90)"/><rect class="cls-3" x="24.92" y="74.76" width="24.92" height="24.92" transform="translate(-49.84 124.59) rotate(-90)"/><rect class="cls-4" y="74.76" width="24.92" height="24.92" transform="translate(-74.76 99.68) rotate(-90)"/><rect class="cls-4" y="49.84" width="24.92" height="24.92" transform="translate(-49.84 74.76) rotate(-90)"/><rect class="cls-3" x="24.92" y="49.84" width="24.92" height="24.92" transform="translate(-24.92 99.68) rotate(-90)"/><rect class="cls-3" x="24.92" y="24.92" width="24.92" height="24.92" transform="translate(0 74.76) rotate(-90)"/><rect class="cls-2" y="24.92" width="24.92" height="24.92" transform="translate(-24.92 49.84) rotate(-90)"/><rect class="cls-1" width="24.92" height="24.92" transform="translate(0 24.92) rotate(-90)"/><rect class="cls-2" x="24.92" width="24.92" height="24.92" transform="translate(24.92 49.84) rotate(-90)"/><rect class="cls-2" x="124.59" y="24.92" width="24.92" height="24.92" transform="translate(99.68 174.43) rotate(-90)"/><rect class="cls-3" x="99.68" y="24.92" width="24.92" height="24.92" transform="translate(74.76 149.51) rotate(-90)"/><rect class="cls-2" x="99.68" width="24.92" height="24.92" transform="translate(99.68 124.59) rotate(-90)"/><rect class="cls-1" x="124.59" width="24.92" height="24.92" transform="translate(124.59 149.51) rotate(-90)"/></svg>