<svg id="Laag_1" data-name="Laag 1" xmlns="http://www.w3.org/2000/svg" viewBox="0 0 149.51 149.51"><defs><style>.cls-1{fill:#ededed;}.cls-2{fill:#dadada;}.cls-3{fill:#f6f6f6;}</style></defs><title>veld</title><rect class="cls-1" y="124.59" width="24.92" height="24.92"/><rect class="cls-2" y="99.68" width="24.92" height="24.92"/><rect class="cls-2" x="24.92" y="99.68" width="24.92" height="24.92"/><rect class="cls-1" x="24.92" y="124.59" width="24.92" height="24.92"/><rect class="cls-1" y="74.76" width="24.92" height="24.92"/><rect class="cls-2" y="49.84" width="24.92" height="24.92"/><rect class="cls-2" x="24.92" y="49.84" width="24.92" height="24.92"/><rect class="cls-1" x="24.92" y="74.76" width="24.92" height="24.92"/><rect class="cls-1" x="49.84" y="74.76" width="24.92" height="24.92"/><rect class="cls-2" x="49.84" y="49.84" width="24.92" height="24.92"/><rect class="cls-2" x="74.76" y="49.84" width="24.92" height="24.92"/><rect class="cls-1" x="74.76" y="74.76" width="24.92" height="24.92"/><rect class="cls-1" x="49.84" y="124.59" width="24.92" height="24.92"/><rect class="cls-2" x="49.84" y="99.68" width="24.92" height="24.92"/><rect class="cls-2" x="74.76" y="99.68" width="24.92" height="24.92"/><rect class="cls-1" x="74.76" y="124.59" width="24.92" height="24.92"/><rect class="cls-1" x="99.68" y="74.76" width="24.92" height="24.92"/><rect class="cls-2" x="99.68" y="49.84" width="24.92" height="24.92"/><rect class="cls-2" x="124.59" y="49.84" width="24.92" height="24.92"/><rect class="cls-1" x="124.59" y="74.76" width="24.92" height="24.92"/><rect class="cls-1" y="24.92" width="24.92" height="24.92"/><rect class="cls-3" width="24.92" height="24.92"/><rect class="cls-3" x="24.92" width="24.92" height="24.92"/><rect class="cls-1" x="24.92" y="24.92" width="24.92" height="24.92"/><rect class="cls-1" x="49.84" y="24.92" width="24.92" height="24.92"/><rect class="cls-3" x="49.84" width="24.92" height="24.92"/><rect class="cls-3" x="74.76" width="24.92" height="24.92"/><rect class="cls-1" x="74.76" y="24.92" width="24.92" height="24.92"/><rect class="cls-1" x="99.68" y="24.92" width="24.92" height="24.92"/><rect class="cls-3" x="99.68" width="24.92" height="24.92"/><rect class="cls-3" x="124.59" width="24.92" height="24.92"/><rect class="cls-1" x="124.59" y="24.92" width="24.92" height="24.92"/><rect class="cls-1" x="99.68" y="124.59" width="24.92" height="24.92"/><rect class="cls-2" x="99.68" y="99.68" width="24.92" height="24.92"/><rect class="cls-2" x="124.59" y="99.68" width="24.92" height="24.92"/><rect class="cls-1" x="124.59" y="124.59" width="24.92" height="24.92"/></svg>